<?xml version="1.0" encoding="UTF-8" standalone="no"?>
<!-- Created with Inkscape (http://www.inkscape.org/) -->

<svg
   xmlns:dc="http://purl.org/dc/elements/1.1/"
   xmlns:cc="http://creativecommons.org/ns#"
   xmlns:rdf="http://www.w3.org/1999/02/22-rdf-syntax-ns#"
   xmlns:svg="http://www.w3.org/2000/svg"
   xmlns="http://www.w3.org/2000/svg"
   xmlns:xlink="http://www.w3.org/1999/xlink"
   xmlns:sodipodi="http://sodipodi.sourceforge.net/DTD/sodipodi-0.dtd"
   xmlns:inkscape="http://www.inkscape.org/namespaces/inkscape"
   width="499.34341"
   height="428.48694"
   id="svg2"
   version="1.1"
   inkscape:version="0.48.4 r9939"
   sodipodi:docname="New document 1">
  <defs
     id="defs4">
    <linearGradient
       id="linearGradient3846"
       inkscape:collect="always">
      <stop
         id="stop3848"
         offset="0"
         style="stop-color:#3f60e6;stop-opacity:1" />
      <stop
         id="stop3850"
         offset="1"
         style="stop-color:#00b882;stop-opacity:1" />
    </linearGradient>
    <linearGradient
       id="linearGradient3828"
       inkscape:collect="always">
      <stop
         id="stop3830"
         offset="0"
         style="stop-color:#ffffff;stop-opacity:1" />
      <stop
         id="stop3832"
         offset="1"
         style="stop-color:#000000;stop-opacity:0" />
    </linearGradient>
    <inkscape:path-effect
       is_visible="true"
       id="path-effect3826"
       effect="spiro" />
    <inkscape:path-effect
       effect="spiro"
       id="path-effect3015"
       is_visible="true" />
    <linearGradient
       inkscape:collect="always"
       xlink:href="#linearGradient3828"
       id="linearGradient3824"
       gradientUnits="userSpaceOnUse"
       x1="277.79193"
       y1="100.79849"
       x2="294.96454"
       y2="499.80875"
       gradientTransform="translate(39.901029,9.5964507)" />
    <linearGradient
       inkscape:collect="always"
       xlink:href="#linearGradient3846"
       id="linearGradient3838"
       gradientUnits="userSpaceOnUse"
       x1="300.01529"
       y1="100.79849"
       x2="294.96454"
       y2="499.80875"
       gradientTransform="translate(39.901027,9.596441)" />
    <filter
       inkscape:collect="always"
       id="filter3892"
       color-interpolation-filters="sRGB">
      <feGaussianBlur
         inkscape:collect="always"
         stdDeviation="3.6050273"
         id="feGaussianBlur3894" />
    </filter>
    <filter
       inkscape:collect="always"
       id="filter3906"
       color-interpolation-filters="sRGB">
      <feGaussianBlur
         inkscape:collect="always"
         stdDeviation="6.4913505"
         id="feGaussianBlur3908" />
    </filter>
  </defs>
  <sodipodi:namedview
     id="base"
     pagecolor="#ffffff"
     bordercolor="#666666"
     borderopacity="1.0"
     inkscape:pageopacity="0.0"
     inkscape:pageshadow="2"
     inkscape:zoom="0.98994949"
     inkscape:cx="69.074075"
     inkscape:cy="254.82726"
     inkscape:document-units="px"
     inkscape:current-layer="layer1"
     showgrid="false"
     fit-margin-top="0"
     fit-margin-left="0"
     fit-margin-right="0"
     fit-margin-bottom="0"
     inkscape:window-width="1680"
     inkscape:window-height="997"
     inkscape:window-x="0"
     inkscape:window-y="-3"
     inkscape:window-maximized="1" />
  <metadata
     id="metadata7">
    <rdf:RDF>
      <cc:Work
         rdf:about="">
        <dc:format>image/svg+xml</dc:format>
        <dc:type
           rdf:resource="http://purl.org/dc/dcmitype/StillImage" />
        <dc:title></dc:title>
      </cc:Work>
    </rdf:RDF>
  </metadata>
  <g
     inkscape:label="Layer 1"
     inkscape:groupmode="layer"
     id="layer1"
     transform="translate(-117.6821,-95.48733)">
    <path
       style="fill:#000000;fill-opacity:1;stroke:none;filter:url(#filter3906)"
       d="m 258.09397,508.39503 c -55.89269,-16.72908 -101.93505,-63.16496 -118.18785,-119.198 -10.62683,-36.63699 -8.75015,-77.18027 7.38645,-111.74628 16.1366,-34.566 46.88111,-62.51653 83.52729,-73.11164 29.64551,-8.57108 61.18963,-5.85909 92.01196,-4.34147 30.82234,1.51762 62.98876,1.49923 90.82564,-11.82097 23.71578,-11.34822 41.98937,-31.25575 62.17831,-48.09698 10.09446,-8.42061 20.86161,-16.19608 32.83309,-21.62643 11.97148,-5.43035 25.25715,-8.44041 38.32875,-7.04818 12.6771,1.35021 24.8551,6.89791 34.26809,15.49602 9.41298,8.59811 16.02594,20.19111 18.7437,32.64686 2.71775,12.45575 1.54437,25.71581 -3.21594,37.54253 -4.76031,11.82672 -13.0746,22.17972 -23.53189,29.47198 -16.63228,11.59831 -37.68421,15.07877 -57.96092,14.98734 -20.27672,-0.0914 -40.41156,-3.4256 -60.6784,-4.06474 -20.26685,-0.63915 -41.32449,1.65604 -58.84119,11.86969 -8.75835,5.10682 -16.46327,12.17569 -21.70443,20.85432 -5.24116,8.67863 -7.9279,18.99957 -6.88619,29.08437 0.95835,9.27779 5.02329,18.09873 10.86555,25.36948 5.84226,7.27076 13.40663,13.04462 21.61011,17.48295 16.40696,8.87667 35.06048,12.43814 53.23236,16.65317 18.17187,4.21502 36.70386,9.45496 51.39658,20.94876 7.34636,5.74691 13.59375,13.03752 17.43972,21.53483 3.84598,8.49732 5.19211,18.23498 3.03948,27.31034 -2.43183,10.25246 -9.22,19.18611 -17.80975,25.28881 -8.58974,6.10271 -18.87984,9.52287 -29.31004,11.01871 -20.86041,2.99168 -41.96965,-1.42831 -62.98684,-2.97249 -55.49784,-4.07755 -112.28473,12.77533 -156.57364,46.46702"
       id="path3896"
       inkscape:path-effect="#path-effect3826"
       inkscape:original-d="m 258.09397,508.39503 c 0,0 -107.07617,-74.75129 -118.18785,-119.198 -11.11168,-44.44671 52.52793,-171.72594 90.91374,-184.85792 38.3858,-13.13198 149.50259,1.01015 182.8376,-16.16244 33.33504,-17.17259 78.7919,-84.8528 133.34015,-76.77159 54.54823,8.08122 75.76144,110.10662 26.26396,115.15739 -49.49748,5.05076 -201.02036,34.34518 -206.07113,72.73098 -5.05076,38.3858 146.47212,83.84266 157.5838,129.29953 11.11168,45.45686 -37.37563,69.70052 -110.10663,33.33503 -72.73097,-36.36549 -45.45686,-68.69037 -156.57364,46.46702 z"
       inkscape:connector-curvature="0" />
    <path
       style="fill:url(#linearGradient3838);fill-opacity:1;stroke:none"
       d="m 258.09398,508.39504 c -55.89269,-16.72908 -101.93505,-63.16497 -118.18785,-119.198 -10.62683,-36.63699 -8.75015,-77.18027 7.38644,-111.74627 16.1366,-34.56601 46.88111,-62.51654 83.52729,-73.11165 29.64551,-8.57109 61.18963,-5.85909 92.01197,-4.34147 30.82234,1.51762 62.98876,1.49923 90.82564,-11.82097 23.71578,-11.34822 41.98937,-31.25575 62.1783,-48.09698 10.09447,-8.42061 20.86162,-16.19608 32.83309,-21.62643 11.97148,-5.43035 25.25715,-8.44041 38.32875,-7.04818 12.6771,1.35021 24.8551,6.89791 34.26809,15.49602 9.41298,8.59811 16.02594,20.19111 18.7437,32.64686 2.71776,12.45575 1.54437,25.71581 -3.21594,37.54253 -4.76031,11.82672 -13.0746,22.17972 -23.53189,29.47198 -16.63228,11.59831 -37.68421,15.07877 -57.96092,14.98734 -20.27672,-0.0914 -40.41155,-3.42559 -60.6784,-4.06474 -20.26685,-0.63915 -41.32448,1.65604 -58.84118,11.86969 -8.75835,5.10683 -16.46327,12.17569 -21.70443,20.85432 -5.24116,8.67863 -7.9279,18.99957 -6.88619,29.08437 0.95835,9.27779 5.02329,18.09873 10.86555,25.36948 5.84226,7.27076 13.40663,13.04462 21.61011,17.48295 16.40696,8.87667 35.06048,12.43814 53.23236,16.65317 18.17187,4.21502 36.70386,9.45496 51.39658,20.94876 7.34636,5.74691 13.59375,13.03752 17.43972,21.53483 3.84598,8.49732 5.19211,18.23498 3.03948,27.31034 -2.43183,10.25246 -9.22,19.18611 -17.80975,25.28881 -8.58974,6.10271 -18.87984,9.52287 -29.31004,11.01871 -20.86041,2.99168 -41.96965,-1.42831 -62.98684,-2.97249 -55.49784,-4.07755 -112.28473,12.77533 -156.57364,46.46702"
       id="path3013"
       inkscape:path-effect="#path-effect3015"
       inkscape:original-d="m 258.09398,508.39504 c 0,0 -107.07617,-74.75129 -118.18785,-119.198 -11.11168,-44.44671 52.52793,-171.72594 90.91373,-184.85792 38.3858,-13.13198 149.50258,1.01015 182.83761,-16.16244 33.33504,-17.17259 78.7919,-84.85282 133.34014,-76.77159 54.54824,8.08122 75.76144,110.10662 26.26396,115.15739 -49.49747,5.05076 -201.02035,34.34518 -206.07112,72.73098 -5.05076,38.3858 146.47212,83.84266 157.5838,129.29953 11.11168,45.45686 -37.37564,69.70052 -110.10663,33.33503 -72.73098,-36.36549 -45.45686,-68.69037 -156.57364,46.46702 z"
       inkscape:connector-curvature="0" />
    <path
       inkscape:connector-curvature="0"
       inkscape:original-d="m 258.09397,508.39503 c 0,0 -107.07617,-74.75129 -118.18785,-119.198 -11.11168,-44.44671 52.52793,-171.72594 90.91374,-184.85792 38.3858,-13.13198 149.50259,1.01015 182.8376,-16.16244 33.33504,-17.17259 78.7919,-84.8528 133.34015,-76.77159 54.54823,8.08122 75.76144,110.10662 26.26396,115.15739 -49.49748,5.05076 -201.02036,34.34518 -206.07113,72.73098 -5.05076,38.3858 146.47212,83.84266 157.5838,129.29953 11.11168,45.45686 -37.37563,69.70052 -110.10663,33.33503 -72.73097,-36.36549 -45.45686,-68.69037 -156.57364,46.46702 z"
       inkscape:path-effect="#path-effect3826"
       id="path3814"
       d="m 258.09397,508.39503 c -55.89269,-16.72908 -101.93505,-63.16496 -118.18785,-119.198 -10.62683,-36.63699 -8.75015,-77.18027 7.38645,-111.74628 16.1366,-34.566 46.88111,-62.51653 83.52729,-73.11164 29.64551,-8.57108 61.18963,-5.85909 92.01196,-4.34147 30.82234,1.51762 62.98876,1.49923 90.82564,-11.82097 23.71578,-11.34822 41.98937,-31.25575 62.17831,-48.09698 10.09446,-8.42061 20.86161,-16.19608 32.83309,-21.62643 11.97148,-5.43035 25.25715,-8.44041 38.32875,-7.04818 12.6771,1.35021 24.8551,6.89791 34.26809,15.49602 9.41298,8.59811 16.02594,20.19111 18.7437,32.64686 2.71775,12.45575 1.54437,25.71581 -3.21594,37.54253 -4.76031,11.82672 -13.0746,22.17972 -23.53189,29.47198 -16.63228,11.59831 -37.68421,15.07877 -57.96092,14.98734 -20.27672,-0.0914 -40.41156,-3.4256 -60.6784,-4.06474 -20.26685,-0.63915 -41.32449,1.65604 -58.84119,11.86969 -8.75835,5.10682 -16.46327,12.17569 -21.70443,20.85432 -5.24116,8.67863 -7.9279,18.99957 -6.88619,29.08437 0.95835,9.27779 5.02329,18.09873 10.86555,25.36948 5.84226,7.27076 13.40663,13.04462 21.61011,17.48295 16.40696,8.87667 35.06048,12.43814 53.23236,16.65317 18.17187,4.21502 36.70386,9.45496 51.39658,20.94876 7.34636,5.74691 13.59375,13.03752 17.43972,21.53483 3.84598,8.49732 5.19211,18.23498 3.03948,27.31034 -2.43183,10.25246 -9.22,19.18611 -17.80975,25.28881 -8.58974,6.10271 -18.87984,9.52287 -29.31004,11.01871 -20.86041,2.99168 -41.96965,-1.42831 -62.98684,-2.97249 -55.49784,-4.07755 -112.28473,12.77533 -156.57364,46.46702"
       style="fill:url(#linearGradient3824);fill-opacity:1;stroke:none" />
    <text
       sodipodi:linespacing="125%"
       id="text3860"
       y="387.68182"
       x="154.55334"
       style="font-size:40px;font-style:normal;font-weight:normal;line-height:125%;letter-spacing:0px;word-spacing:0px;fill:#000000;fill-opacity:1;stroke:none;filter:url(#filter3892);font-family:Sans"
       xml:space="preserve"><tspan
         style="font-size:144px;font-style:italic;font-variant:normal;font-weight:normal;font-stretch:normal;fill:#000000;stroke:none;font-family:Abyssinica SIL;-inkscape-font-specification:Abyssinica SIL Italic"
         y="387.68182"
         x="154.55334"
         id="tspan3862"
         sodipodi:role="line">I.T.I</tspan></text>
    <text
       xml:space="preserve"
       style="font-size:40px;font-style:normal;font-weight:normal;line-height:125%;letter-spacing:0px;word-spacing:0px;fill:#ffffff;fill-opacity:1;stroke:none;font-family:Sans"
       x="154.55334"
       y="387.68182"
       id="text3856"
       sodipodi:linespacing="125%"><tspan
         sodipodi:role="line"
         id="tspan3858"
         x="154.55334"
         y="387.68182"
         style="font-size:144px;font-style:italic;font-variant:normal;font-weight:normal;font-stretch:normal;fill:#ffffff;stroke:none;font-family:Abyssinica SIL;-inkscape-font-specification:Abyssinica SIL Italic">I.T.I</tspan></text>
  </g>
</svg>
