<?xml version="1.0" encoding="UTF-8" standalone="no"?>
<!-- Created with Inkscape (http://www.inkscape.org/) -->

<svg
   xmlns:dc="http://purl.org/dc/elements/1.1/"
   xmlns:cc="http://creativecommons.org/ns#"
   xmlns:rdf="http://www.w3.org/1999/02/22-rdf-syntax-ns#"
   xmlns:svg="http://www.w3.org/2000/svg"
   xmlns="http://www.w3.org/2000/svg"
   xmlns:sodipodi="http://sodipodi.sourceforge.net/DTD/sodipodi-0.dtd"
   xmlns:inkscape="http://www.inkscape.org/namespaces/inkscape"
   width="503.14288"
   height="321.47845"
   id="svg2"
   version="1.1"
   inkscape:version="0.48.4 r9939"
   sodipodi:docname="logo.svg">
  <defs
     id="defs4" />
  <sodipodi:namedview
     id="base"
     pagecolor="#ffffff"
     bordercolor="#666666"
     borderopacity="1.0"
     inkscape:pageopacity="0.0"
     inkscape:pageshadow="2"
     inkscape:zoom="1.4"
     inkscape:cx="145.97398"
     inkscape:cy="173.65846"
     inkscape:document-units="px"
     inkscape:current-layer="layer1"
     showgrid="false"
     inkscape:window-width="1680"
     inkscape:window-height="995"
     inkscape:window-x="0"
     inkscape:window-y="-3"
     inkscape:window-maximized="1"
     fit-margin-top="0"
     fit-margin-left="0"
     fit-margin-right="0"
     fit-margin-bottom="0" />
  <metadata
     id="metadata7">
    <rdf:RDF>
      <cc:Work
         rdf:about="">
        <dc:format>image/svg+xml</dc:format>
        <dc:type
           rdf:resource="http://purl.org/dc/dcmitype/StillImage" />
      </cc:Work>
    </rdf:RDF>
  </metadata>
  <g
     inkscape:label="Layer 1"
     inkscape:groupmode="layer"
     id="layer1"
     transform="translate(-115.92857,-75.324489)">
    <g
       id="g4072"
       transform="matrix(2.3425926,0,0,2.3425926,-479.77182,-293.46557)">
      <path
         sodipodi:nodetypes="ccccccccc"
         inkscape:connector-curvature="0"
         id="path4069"
         d="m 503.57143,287.00504 c -32.05482,32.68363 5.1448,48.40893 -22.19375,75.74747 -27.33855,27.33855 -87.16046,-1.8652 -128.87768,-1.8652 -41.71722,0 -105.54895,28.20129 -132.8875,0.86274 -27.33855,-27.33854 18.61375,-36.15799 -16.47223,-79.88012 24.05896,-41.71722 56.29827,-1.17064 98.67367,-42.54358 27.66381,-27.00938 4.95901,25.92415 46.67623,25.92415 41.71722,0 37.38191,-53.2627 64.72046,-25.92415 18.78003,45.31145 67.3043,5.96147 90.3608,47.67869 z"
         style="fill:#ffffff;fill-opacity:1;stroke:#ffffff;stroke-opacity:1"
         transform="matrix(0.71253534,0,0,0.71253534,109.90272,27.503806)" />
      <path
         transform="matrix(0.62994288,0,0,0.62994288,222.90737,160.96853)"
         inkscape:transform-center-y="-1.2533682"
         inkscape:transform-center-x="2.8071077"
         d="M 268.1176,122.76612 C 428.55374,-56.499671 -26.476497,131.73704 214.76854,144.84348 456.01357,157.94993 21.217158,-76.753688 163.86788,116.60736 306.51861,309.96841 222.76559,-172.2251 154.0142,59.235773 85.262811,290.69665 413.94725,-79.327467 193.02595,16.432057 -27.895344,112.19158 461.13277,138.03153 250.23437,19.579715 39.335971,-98.872096 328.99992,304.21029 284.00624,67.2484 239.01257,-169.71349 107.68145,302.03191 268.1176,122.76612 z"
         inkscape:randomized="-0.01"
         inkscape:rounded="-4.16"
         inkscape:flatsided="true"
         sodipodi:arg2="1.1736651"
         sodipodi:arg1="0.72486614"
         sodipodi:r2="33.396198"
         sodipodi:r1="66.792397"
         sodipodi:cy="78.076469"
         sodipodi:cx="218.57143"
         sodipodi:sides="7"
         id="path4065"
         style="fill:#2375f1;fill-opacity:1;stroke:#ffffff;stroke-opacity:1"
         sodipodi:type="star" />
      <text
         sodipodi:linespacing="125%"
         id="text3923"
         y="244.11163"
         x="357.70993"
         style="font-size:40px;font-style:normal;font-weight:normal;line-height:125%;letter-spacing:0px;word-spacing:0px;fill:#000000;fill-opacity:1;stroke:none;font-family:Sans"
         xml:space="preserve"><tspan
           style="font-size:48px;font-style:italic;font-variant:normal;font-weight:bold;font-stretch:normal;text-align:center;text-anchor:middle;font-family:URW Chancery L;-inkscape-font-specification:URW Chancery L Bold Italic"
           y="244.11163"
           x="363.00681"
           id="tspan3925"
           sodipodi:role="line">Innovation </tspan><tspan
           style="font-size:22px;font-style:italic;font-variant:normal;font-weight:bold;font-stretch:normal;text-align:center;text-anchor:middle;font-family:URW Chancery L;-inkscape-font-specification:URW Chancery L Bold Italic"
           id="tspan3927"
           y="278.95197"
           x="357.70993"
           sodipodi:role="line">Technological Insistitue</tspan></text>
      <path
         sodipodi:nodetypes="cccc"
         inkscape:connector-curvature="0"
         id="path4059"
         d="m 266.78571,253.79075 188.57143,0.71429 0,-0.71429 z"
         style="fill:none;stroke:#000000;stroke-width:1px;stroke-linecap:butt;stroke-linejoin:miter;stroke-opacity:1" />
    </g>
  </g>
</svg>
